<?xml version="1.0" encoding="UTF-8"?><svg xmlns="http://www.w3.org/2000/svg" xmlns:xlink="http://www.w3.org/1999/xlink" height="119.5" preserveAspectRatio="xMidYMid meet" version="1.0" viewBox="0.0 0.0 94.3 119.5" width="94.3" zoomAndPan="magnify"><g id="change1_1"><path d="M7.36 66.625H11.005V71.253H7.36z" fill="inherit"/><path d="M7.36 73.253H11.005V74.549H7.36z" fill="inherit"/><path d="M13.005,117.504h1.194v-8.447c0-3.572,2.906-6.479,6.478-6.479c3.572,0,6.479,2.906,6.479,6.479v8.447h1.194V101.39H13.005 V117.504z" fill="inherit"/><path d="M7.36 82.212H11.005V83.55H7.36z" fill="inherit"/><path d="M7.36 76.55H11.005V80.213H7.36z" fill="inherit"/><path d="M7.36 63.48H11.005V64.625H7.36z" fill="inherit"/><path d="M20.677,104.578c-2.469,0-4.478,2.009-4.478,4.479v8.447h1.222v-8.523c0-1.795,1.46-3.256,3.256-3.256 s3.256,1.46,3.256,3.256v8.523h1.222v-8.447C25.155,106.587,23.146,104.578,20.677,104.578z" fill="inherit"/><path d="M20.677,107.725c-0.692,0-1.256,0.563-1.256,1.256v8.523h2.512v-8.523C21.933,108.288,21.37,107.725,20.677,107.725z" fill="inherit"/><path d="M7.36,89.492l0.938-1.781c0.346-0.657,1.424-0.657,1.77,0l0.938,1.781v-3.942H7.36V89.492z" fill="inherit"/><path d="M2.719 75.03L5.36 75.03 5.36 70.587 2.768 70.587z" fill="inherit"/><path d="M2.79 68.587L5.36 68.587 5.36 67.572 2.801 67.572z" fill="inherit"/><path d="M2.685 78.046L5.36 78.046 5.36 77.03 2.697 77.03z" fill="inherit"/><path d="M8.016 92.538L10.348 92.538 9.182 90.324z" fill="inherit"/><path d="M2.823 65.572L5.36 65.572 5.36 64.501 2.835 64.501z" fill="inherit"/><path d="M7.36 94.538H11.005V119.538H7.36z" fill="inherit"/><path d="M4.198,45.794v16.707H5.36V62.48c0-0.552,0.448-1,1-1h0.131V42.067C5.2,42.804,4.198,44.761,4.198,45.794z" fill="inherit"/><path d="M11.874,61.48h0.131c0.552,0,1,0.448,1,1v0.021h1.383v-2.318c0-0.552,0.448-1,1-1h3.609c0.552,0,1,0.448,1,1v2.318h1.36 v-2.318c0-0.552,0.448-1,1-1h3.609c0.552,0,1,0.448,1,1v2.318h1.383V62.48c0-0.552,0.448-1,1-1h0.131V41.228H11.874V61.48z M19.997,56.864c0,0.552-0.448,1-1,1h-3.609c-0.552,0-1-0.448-1-1v-3.183c0-0.552,0.448-1,1-1h3.609c0.552,0,1,0.448,1,1V56.864z M19.997,50.498c0,0.552-0.448,1-1,1h-3.609c-0.552,0-1-0.448-1-1v-1.625c0-1.546,1.258-2.805,2.805-2.805s2.805,1.258,2.805,2.805 V50.498z M26.966,56.864c0,0.552-0.448,1-1,1h-3.609c-0.552,0-1-0.448-1-1v-3.183c0-0.552,0.448-1,1-1h3.609c0.552,0,1,0.448,1,1 V56.864z M26.966,50.498c0,0.552-0.448,1-1,1h-3.609c-0.552,0-1-0.448-1-1v-1.625c0-1.546,1.258-2.805,2.805-2.805 s2.805,1.258,2.805,2.805V50.498z M13.279,44.618c0.047-0.103,1.188-2.523,3.914-2.523c1.545,0,2.748,0.799,3.484,1.469 c0.736-0.669,1.939-1.469,3.485-1.469c2.725,0,3.866,2.42,3.913,2.523c0.23,0.502,0.01,1.095-0.493,1.326 c-0.135,0.062-0.276,0.091-0.416,0.091c-0.376,0-0.737-0.213-0.906-0.576c-0.031-0.065-0.677-1.364-2.098-1.364 c-1.556,0-2.66,1.505-2.671,1.521c-0.188,0.26-0.491,0.417-0.813,0.417c-0.002,0-0.003,0-0.005,0 c-0.323-0.002-0.627-0.157-0.813-0.421c-0.008-0.011-1.112-1.517-2.667-1.517c-1.427,0-2.072,1.309-2.099,1.365 c-0.237,0.495-0.83,0.711-1.328,0.476C13.268,45.703,13.05,45.117,13.279,44.618z" fill="inherit"/><path d="M16.388 54.681H17.997V55.864H16.388z" fill="inherit"/><path d="M17.192,48.069c-0.444,0-0.805,0.361-0.805,0.805v0.625h1.609v-0.625C17.997,48.43,17.636,48.069,17.192,48.069z" fill="inherit"/><path d="M16.388 61.183H17.997V62.501H16.388z" fill="inherit"/><path d="M23.357 54.681H24.966V55.864H23.357z" fill="inherit"/><path d="M23.357 61.183H24.966V62.501H23.357z" fill="inherit"/><path d="M28.227 37.99H29.48V39.227000000000004H28.227z" fill="inherit"/><path d="M24.162,48.069c-0.444,0-0.805,0.361-0.805,0.805v0.625h1.609v-0.625C24.966,48.43,24.605,48.069,24.162,48.069z" fill="inherit"/><path d="M2.525 92.538L5.36 92.538 5.36 80.046 2.663 80.046z" fill="inherit"/><path d="M17.192,92.625c-0.444,0-0.805,0.361-0.805,0.805v2.85h1.609v-2.85C17.997,92.986,17.636,92.625,17.192,92.625z" fill="inherit"/><path d="M13.005,93.538v2.742h1.383v-2.85c0-1.546,1.258-2.805,2.805-2.805s2.805,1.258,2.805,2.805v2.85h1.36v-2.85 c0-1.546,1.258-2.805,2.805-2.805s2.805,1.258,2.805,2.805v2.85h1.383v-2.742v-4.36H13.005V93.538z" fill="inherit"/><path d="M24.162,92.625c-0.444,0-0.805,0.361-0.805,0.805v2.85h1.609v-2.85C24.966,92.986,24.605,92.625,24.162,92.625z" fill="inherit"/><path d="M13.005 64.501H28.349V65.762H13.005z" fill="inherit"/><path d="M13.005 98.28H28.349V99.39H13.005z" fill="inherit"/><path d="M13.005 85.551H28.349V87.178H13.005z" fill="inherit"/><path d="M13.005,83.551h1.383v-5.556c0-1.546,1.258-2.805,2.805-2.805s2.805,1.258,2.805,2.805v5.556h1.36v-5.556 c0-1.546,1.258-2.805,2.805-2.805s2.805,1.258,2.805,2.805v5.556h1.383V67.762H13.005V83.551z M20.677,69.849 c1.139,0,2.062,0.923,2.062,2.062s-0.923,2.062-2.062,2.062c-1.139,0-2.062-0.923-2.062-2.062S19.538,69.849,20.677,69.849z" fill="inherit"/><path d="M24.162,77.19c-0.444,0-0.805,0.361-0.805,0.805v5.556h1.609v-5.556C24.966,77.551,24.605,77.19,24.162,77.19z" fill="inherit"/><path d="M17.192,77.19c-0.444,0-0.805,0.361-0.805,0.805v5.556h1.609v-5.556C17.997,77.551,17.636,77.19,17.192,77.19z" fill="inherit"/><path d="M77.903 37.99H79.18700000000001V39.227000000000004H77.903z" fill="inherit"/><path d="M80.187 35.989L80.194 35.99 84.129 35.99 84.129 34.411 63.14 34.411 63.14 35.99 67.078 35.99 67.085 35.989 67.092 35.99 80.18 35.99z" fill="inherit"/><path d="M30.349 94.538H33.994V119.538H30.349z" fill="inherit"/><path d="M84.438 59.884H85.821V61.480000000000004H84.438z" fill="inherit"/><path d="M74.635 37.99H75.90400000000001V39.227000000000004H74.635z" fill="inherit"/><path d="M71.366 37.99H72.635V39.227000000000004H71.366z" fill="inherit"/><path d="M64.832 37.99H66.085V39.227000000000004H64.832z" fill="inherit"/><path d="M68.085 37.99H69.366V39.227000000000004H68.085z" fill="inherit"/><path d="M84.438 37.99H85.821V57.884H84.438z" fill="inherit"/><path d="M61.448 37.99H62.831V57.884H61.448z" fill="inherit"/><path d="M61.144,32.411h24.982l-3.248-2.446c-0.17-0.128-0.294-0.307-0.356-0.51L75.27,5.421h-3.271l-7.252,24.034 c-0.062,0.203-0.186,0.382-0.356,0.51L61.144,32.411z M73.635,22.706l3.301,6.459h-6.602L73.635,22.706z" fill="inherit"/><path d="M88.952 68.587L91.522 68.587 91.51 67.572 88.952 67.572z" fill="inherit"/><path d="M88.952 78.046L91.626 78.046 91.615 77.03 88.952 77.03z" fill="inherit"/><path d="M88.952 92.538L91.786 92.538 91.648 80.046 88.952 80.046z" fill="inherit"/><path d="M88.952 75.03L91.593 75.03 91.544 70.587 88.952 70.587z" fill="inherit"/><path d="M73.635 0L72.603 3.421 74.667 3.421z" fill="inherit"/><path d="M1.503,94.538H0v22.966l5.111,0c0.089,0,0.166,0.001,0.249,0.001V94.538H1.514C1.511,94.538,1.507,94.538,1.503,94.538z" fill="inherit"/><path d="M86.068 29.864L86.94 23.706 82.877 23.706 84.342 28.563z" fill="inherit"/><path d="M88.952 65.572L91.488 65.572 91.477 64.501 88.952 64.501z" fill="inherit"/><path d="M21.677 37.99H22.945999999999998V39.227000000000004H21.677z" fill="inherit"/><path d="M27.227 35.989L27.234 35.99 31.171 35.99 31.171 34.411 10.182 34.411 10.182 35.99 14.117 35.99 14.125 35.989 14.132 35.99 27.219 35.99z" fill="inherit"/><path d="M15.125 37.99H16.409V39.227000000000004H15.125z" fill="inherit"/><path d="M24.946 37.99H26.227V39.227000000000004H24.946z" fill="inherit"/><path d="M18.408 37.99H19.677V39.227000000000004H18.408z" fill="inherit"/><path d="M8.491 59.884H9.873999999999999V61.480000000000004H8.491z" fill="inherit"/><path d="M11.874 37.99H13.124V39.227000000000004H11.874z" fill="inherit"/><path d="M8.491 37.99H9.873999999999999V57.884H8.491z" fill="inherit"/><path d="M20.677 0L19.645 3.421 21.709 3.421z" fill="inherit"/><path d="M33.111 29.864L33.983 23.706 29.919 23.706 31.385 28.563z" fill="inherit"/><path d="M44.699,56.218l1.77-1.672c0.385-0.364,0.988-0.364,1.373,0l1.77,1.672v-3.899h-4.913V56.218z" fill="inherit"/><path d="M62.927 28.563L64.392 23.706 60.329 23.706 61.201 29.864z" fill="inherit"/><path d="M31.48 37.99H32.863V57.884H31.48z" fill="inherit"/><path d="M31.48 59.884H32.863V61.480000000000004H31.48z" fill="inherit"/><path d="M61.448 59.884H62.831V61.480000000000004H61.448z" fill="inherit"/><path d="M8.186,32.411h24.982l-3.248-2.446c-0.17-0.128-0.294-0.307-0.356-0.51L22.313,5.421h-3.271L11.79,29.455 c-0.062,0.203-0.186,0.382-0.356,0.51L8.186,32.411z M20.677,22.706l3.301,6.459h-6.602L20.677,22.706z" fill="inherit"/><path d="M9.969 28.563L11.435 23.706 7.371 23.706 8.243 29.864z" fill="inherit"/><path d="M70.15,92.625c-0.444,0-0.805,0.361-0.805,0.805v2.85h1.609v-2.85C70.955,92.986,70.594,92.625,70.15,92.625z" fill="inherit"/><path d="M65.962 85.551H81.306V87.178H65.962z" fill="inherit"/><path d="M65.962,93.538v2.742h1.383v-2.85c0-1.546,1.258-2.805,2.805-2.805s2.805,1.258,2.805,2.805v2.85h1.36v-2.85 c0-1.546,1.258-2.805,2.805-2.805s2.805,1.258,2.805,2.805v2.85h1.383v-2.742v-4.36H65.962V93.538z" fill="inherit"/><path d="M77.119,92.625c-0.444,0-0.805,0.361-0.805,0.805v2.85h1.609v-2.85C77.924,92.986,77.563,92.625,77.119,92.625z" fill="inherit"/><path d="M70.15,77.19c-0.444,0-0.805,0.361-0.805,0.805v5.556h1.609v-5.556C70.955,77.551,70.594,77.19,70.15,77.19z" fill="inherit"/><path d="M77.119,77.19c-0.444,0-0.805,0.361-0.805,0.805v5.556h1.609v-5.556C77.924,77.551,77.563,77.19,77.119,77.19z" fill="inherit"/><path d="M65.962 64.501H81.306V65.762H65.962z" fill="inherit"/><path d="M65.962,83.551h1.383v-5.556c0-1.546,1.258-2.805,2.805-2.805s2.805,1.258,2.805,2.805v5.556h1.36v-5.556 c0-1.546,1.258-2.805,2.805-2.805s2.805,1.258,2.805,2.805v5.556h1.383V67.762H65.962V83.551z M73.635,69.849 c1.139,0,2.062,0.923,2.062,2.062s-0.923,2.062-2.062,2.062c-1.139,0-2.062-0.923-2.062-2.062S72.496,69.849,73.635,69.849z" fill="inherit"/><path d="M73.635,104.578c-2.469,0-4.479,2.009-4.479,4.479v8.447h1.222v-8.523c0-1.795,1.461-3.256,3.256-3.256 s3.256,1.46,3.256,3.256v8.523h1.222v-8.447C78.113,106.587,76.104,104.578,73.635,104.578z" fill="inherit"/><path d="M60.317 66.625H63.962V71.253H60.317z" fill="inherit"/><path d="M60.317 73.253H63.962V74.549H60.317z" fill="inherit"/><path d="M60.317 63.48H63.962V64.625H60.317z" fill="inherit"/><path d="M60.317 76.55H63.962V80.213H60.317z" fill="inherit"/><path d="M73.635,107.725c-0.693,0-1.256,0.563-1.256,1.256v8.523h2.512v-8.523C74.891,108.288,74.327,107.725,73.635,107.725z" fill="inherit"/><path d="M65.962,117.504h1.194v-8.447c0-3.572,2.906-6.479,6.479-6.479c3.572,0,6.478,2.906,6.478,6.479v8.447h1.194V101.39H65.962 V117.504z" fill="inherit"/><path d="M83.307 76.55H86.952V80.213H83.307z" fill="inherit"/><path d="M65.962 98.28H81.306V99.39H65.962z" fill="inherit"/><path d="M83.963 92.538L86.295 92.538 85.129 90.324z" fill="inherit"/><path d="M64.832,61.48h0.131c0.552,0,1,0.448,1,1v0.021h1.383v-2.318c0-0.552,0.448-1,1-1c0.001,0,0.002,0.001,0.003,0.001 s0.002-0.001,0.003-0.001h3.609c0.552,0,1,0.448,1,1c0,0.01-0.006,0.019-0.006,0.029v2.289h1.36v-2.318c0-0.552,0.448-1,1-1h3.609 c0.552,0,1,0.448,1,1v2.318h1.383V62.48c0-0.552,0.448-1,1-1h0.131V41.228H64.832V61.48z M72.955,56.864c0,0.552-0.448,1-1,1 h-3.609c-0.552,0-1-0.448-1-1v-3.183c0-0.552,0.448-1,1-1h3.609c0.552,0,1,0.448,1,1V56.864z M72.955,50.498c0,0.552-0.448,1-1,1 h-3.609c-0.552,0-1-0.448-1-1v-1.625c0-1.546,1.258-2.805,2.805-2.805s2.805,1.258,2.805,2.805V50.498z M79.924,56.864 c0,0.552-0.448,1-1,1h-3.609c-0.552,0-1-0.448-1-1v-3.183c0-0.552,0.448-1,1-1h3.609c0.552,0,1,0.448,1,1V56.864z M79.924,50.498 c0,0.552-0.448,1-1,1h-3.609c-0.552,0-1-0.448-1-1v-1.625c0-1.546,1.258-2.805,2.805-2.805s2.805,1.258,2.805,2.805V50.498z M66.237,44.619c0.047-0.103,1.188-2.523,3.913-2.523c1.545,0,2.749,0.799,3.485,1.469c0.736-0.669,1.939-1.469,3.484-1.469 c2.725,0,3.866,2.42,3.914,2.523c0.23,0.502,0.01,1.096-0.492,1.326c-0.502,0.229-1.096,0.009-1.326-0.492 c-0.023-0.048-0.668-1.357-2.095-1.357c-1.556,0-2.659,1.505-2.67,1.521c-0.189,0.262-0.524,0.419-0.817,0.417 c-0.323-0.002-0.627-0.157-0.813-0.421c-0.008-0.011-1.112-1.517-2.668-1.517c-1.456,0-2.089,1.343-2.095,1.356 c-0.168,0.367-0.531,0.583-0.91,0.583c-0.14,0-0.281-0.029-0.416-0.091C66.227,45.714,66.007,45.121,66.237,44.619z" fill="inherit"/><path d="M81.187 37.99H82.437V39.227000000000004H81.187z" fill="inherit"/><path d="M31.006 92.538L33.337 92.538 32.171 90.324z" fill="inherit"/><path d="M83.307 94.538H86.952V119.538H83.307z" fill="inherit"/><path d="M83.307,89.493l0.938-1.781c0.173-0.329,0.514-0.534,0.885-0.534s0.712,0.206,0.885,0.534l0.938,1.781v-3.942h-3.645 V89.493z" fill="inherit"/><path d="M83.307 82.212H86.952V83.55H83.307z" fill="inherit"/><path d="M60.317 82.212H63.962V83.55H60.317z" fill="inherit"/><path d="M77.119,48.069c-0.444,0-0.805,0.361-0.805,0.805v0.625h1.609v-0.625C77.924,48.43,77.563,48.069,77.119,48.069z" fill="inherit"/><path d="M83.307 66.625H86.952V71.253H83.307z" fill="inherit"/><path d="M88.952,62.501h1.162V45.794c0-1.034-1.002-2.99-2.293-3.727V61.48h0.131c0.552,0,1,0.448,1,1V62.501z" fill="inherit"/><path d="M83.307 73.253H86.952V74.549H83.307z" fill="inherit"/><path d="M83.307 63.48H86.952V64.625H83.307z" fill="inherit"/><path d="M69.345 54.681H70.954V55.864H69.345z" fill="inherit"/><path d="M70.15,48.069c-0.444,0-0.805,0.361-0.805,0.805v0.625h1.609v-0.625C70.955,48.43,70.594,48.069,70.15,48.069z" fill="inherit"/><path d="M76.314 54.681H77.92299999999999V55.864H76.314z" fill="inherit"/><path d="M76.314 61.183H77.92299999999999V62.501H76.314z" fill="inherit"/><path d="M69.345 61.183H70.954V62.501H69.345z" fill="inherit"/><path d="M35.994 98.28H58.317V99.39H35.994z" fill="inherit"/><path d="M60.317,89.493l0.938-1.781c0.173-0.329,0.514-0.534,0.885-0.534s0.712,0.206,0.885,0.534l0.938,1.781v-3.942h-3.645 V89.493z" fill="inherit"/><path d="M47.156,91.858c-0.444,0-0.805,0.361-0.805,0.805v3.617h1.609v-3.617C47.96,92.219,47.6,91.858,47.156,91.858z" fill="inherit"/><path d="M40.137,91.858c-0.444,0-0.805,0.361-0.805,0.805v3.617h1.609v-3.617C40.941,92.219,40.581,91.858,40.137,91.858z" fill="inherit"/><path d="M54.175,91.858c-0.444,0-0.805,0.361-0.805,0.805v3.617h1.609v-3.617C54.979,92.219,54.619,91.858,54.175,91.858z" fill="inherit"/><path d="M30.349 82.212H33.994V83.55H30.349z" fill="inherit"/><path d="M47.14,107.685c-2.265,0-4.113,1.842-4.121,4.107l-0.024,7.746h8.24l0.025-7.72c0.003-1.103-0.424-2.141-1.203-2.922 C49.279,108.115,48.243,107.685,47.14,107.685z" fill="inherit"/><path d="M30.349 63.48H33.994V64.625H30.349z" fill="inherit"/><path d="M30.349 76.55H33.994V80.213H30.349z" fill="inherit"/><path d="M35.994,119.538h1.777v-7.575c0-5.175,4.21-9.385,9.385-9.385s9.385,4.21,9.385,9.385v7.575h1.777V101.39H35.994V119.538z" fill="inherit"/><path d="M30.349 66.625H33.994V71.253H30.349z" fill="inherit"/><path d="M47.156,104.578c-4.072,0-7.385,3.313-7.385,7.385v7.575h1.224l0.024-7.752c0.011-3.364,2.757-6.101,6.121-6.101 c1.638,0,3.177,0.639,4.334,1.799s1.791,2.702,1.786,4.34l-0.025,7.714h1.305v-7.575C54.541,107.891,51.228,104.578,47.156,104.578 z" fill="inherit"/><path d="M41.807,75.969c-0.626,0.848-1.053,1.848-1.218,2.935h4.153L41.807,75.969z" fill="inherit"/><path d="M35.994,67.193v1.856l10.475-9.896c0.385-0.364,0.988-0.364,1.373,0l10.475,9.896v-1.856L47.156,56.648L35.994,67.193z" fill="inherit"/><path d="M30.349,89.492l0.938-1.781c0.346-0.657,1.424-0.657,1.77,0l0.938,1.781v-3.942h-3.645V89.492z" fill="inherit"/><path d="M48.156,82.318v4.153c1.087-0.165,2.087-0.592,2.935-1.218L48.156,82.318z" fill="inherit"/><path d="M92.809,94.538c-0.004,0-0.008,0-0.011,0h-3.846v22.966c0.083,0,0.16-0.001,0.249-0.001l5.111,0V94.538H92.809z" fill="inherit"/><path d="M35.994,71.8v21.738v2.742h1.338v-3.617c0-1.546,1.258-2.805,2.805-2.805s2.805,1.258,2.805,2.805v3.617h1.41v-3.617 c0-1.546,1.258-2.805,2.805-2.805s2.805,1.258,2.805,2.805v3.617h1.41v-3.617c0-1.546,1.258-2.805,2.805-2.805 s2.805,1.258,2.805,2.805v3.617h1.338v-2.742V71.8L47.156,61.256L35.994,71.8z M53.272,73.787c0.006,0.006,0.008,0.015,0.014,0.021 c1.556,1.565,2.519,3.719,2.519,6.095s-0.964,4.53-2.519,6.095c-0.006,0.006-0.008,0.015-0.014,0.021s-0.015,0.008-0.021,0.014 c-1.565,1.556-3.719,2.519-6.095,2.519s-4.53-0.964-6.095-2.519c-0.006-0.006-0.015-0.008-0.021-0.014s-0.008-0.015-0.014-0.021 c-1.556-1.565-2.519-3.719-2.519-6.095s0.964-4.53,2.519-6.095c0.006-0.006,0.008-0.015,0.014-0.021s0.015-0.008,0.021-0.014 c1.565-1.556,3.719-2.519,6.095-2.519s4.53,0.964,6.095,2.519C53.258,73.779,53.266,73.781,53.272,73.787z M49.02,67.083 c0,1.03-0.835,1.864-1.864,1.864s-1.864-0.835-1.864-1.864c0-1.03,0.835-1.864,1.864-1.864S49.02,66.053,49.02,67.083z" fill="inherit"/><path d="M40.589,80.904c0.165,1.087,0.592,2.087,1.218,2.935l2.935-2.935H40.589z" fill="inherit"/><path d="M60.317 94.538H63.962V119.538H60.317z" fill="inherit"/><path d="M30.349 73.253H33.994V74.549H30.349z" fill="inherit"/><path d="M60.974 92.538L63.306 92.538 62.14 90.324z" fill="inherit"/><path d="M46.156,77.49v-4.153c-1.087,0.165-2.087,0.592-2.935,1.218L46.156,77.49z" fill="inherit"/><path d="M46.156,86.471v-4.153l-2.935,2.935C44.069,85.879,45.069,86.306,46.156,86.471z" fill="inherit"/><path d="M48.156,73.337v4.153l2.935-2.935C50.242,73.929,49.243,73.502,48.156,73.337z" fill="inherit"/><path d="M52.505,83.839c0.626-0.848,1.053-1.848,1.218-2.935H49.57L52.505,83.839z" fill="inherit"/><path d="M53.723,78.904c-0.165-1.087-0.592-2.087-1.218-2.935l-2.935,2.935H53.723z" fill="inherit"/><path d="M43.699,44.894h2.457v3.516c0,0.552,0.448,1,1,1s1-0.448,1-1v-3.516h2.555c0.552,0,1-0.448,1-1s-0.448-1-1-1h-2.555v-2.1 c0-0.552-0.448-1-1-1s-1,0.448-1,1v2.1h-2.457c-0.552,0-1,0.448-1,1S43.147,44.894,43.699,44.894z" fill="inherit"/></g></svg>